[Header]
FileType HTR
DataType HTRS
FileVersion 1
NumSegments 64
NumFrames 3
DataFrameRate 24
EulerRotationOrder ZYX
CalibrationUnits mm
RotationUnits Degrees
GlobalAxisofGravity Y
BoneLengthAxis Y
ScaleFactor 1.0
[SegmentNames&Hierarchy]
Hips	GLOBAL
Spine	Hips
Spine1	Spine
Spine2	Spine1
Neck	Spine2
Head	Neck
LeftEye	Head
RightEye	Head
LeftShoulder	Spine2
LeftArm	LeftShoulder
LeftForeArm	LeftArm
LeftHand	LeftForeArm
LeftHandThumb1	LeftHand
LeftHandThumb2	LeftHandThumb1
LeftHandThumb3	LeftHandThumb2
LeftHandThumb4	LeftHandThumb3
LeftHandIndex1	LeftHand
LeftHandIndex2	LeftHandIndex1
LeftHandIndex3	LeftHandIndex2
LeftHandIndex4	LeftHandIndex3
LeftHandMiddle1	LeftHand
LeftHandMiddle2	LeftHandMiddle1
LeftHandMiddle3	LeftHandMiddle2
LeftHandMiddle4	LeftHandMiddle3
LeftHandRing1	LeftHand
LeftHandRing2	LeftHandRing1
LeftHandRing3	LeftHandRing2
LeftHandRing4	LeftHandRing3
LeftHandPinky1	LeftHand
LeftHandPinky2	LeftHandPinky1
LeftHandPinky3	LeftHandPinky2
LeftHandPinky4	LeftHandPinky3
RightShoulder	Spine2
RightArm	RightShoulder
RightForeArm	RightArm
RightHand	RightForeArm
RightHandPinky1	RightHand
RightHandPinky2	RightHandPinky1
RightHandPinky3	RightHandPinky2
RightHandPinky4	RightHandPinky3
RightHandRing1	RightHand
RightHandRing2	RightHandRing1
RightHandRing3	RightHandRing2
RightHandRing4	RightHandRing3
RightHandMiddle1	RightHand
RightHandMiddle2	RightHandMiddle1
RightHandMiddle3	RightHandMiddle2
RightHandMiddle4	RightHandMiddle3
RightHandIndex1	RightHand
RightHandIndex2	RightHandIndex1
RightHandIndex3	RightHandIndex2
RightHandIndex4	RightHandIndex3
RightHandThumb1	RightHand
RightHandThumb2	RightHandThumb1
RightHandThumb3	RightHandThumb2
RightHandThumb4	RightHandThumb3
LeftUpLeg	Hips
LeftLeg	LeftUpLeg
LeftFoot	LeftLeg
LeftToeBase	LeftFoot
RightUpLeg	Hips
RightLeg	RightUpLeg
RightFoot	RightLeg
RightToeBase	RightFoot
[BasePosition]
Hips	0	0	0	0	0	0	1
Spine	0	0	0	0	0	0	1
Spine1	0	0	0	0	0	0	1
Spine2	0	0	0	0	0	0	1
Neck	0	0	0	0	0	0	1
Head	0	0	0	0	0	0	1
LeftEye	0	0	0	0	0	0	1
RightEye	0	0	0	0	0	0	1
LeftShoulder	0	0	0	0	0	0	1
LeftArm	0	0	0	0	0	0	1
LeftForeArm	0	0	0	0	0	0	1
LeftHand	0	0	0	0	0	0	1
LeftHandThumb1	0	0	0	0	0	0	1
LeftHandThumb2	0	0	0	0	0	0	1
LeftHandThumb3	0	0	0	0	0	0	1
LeftHandThumb4	0	0	0	0	0	0	1
LeftHandIndex1	0	0	0	0	0	0	1
LeftHandIndex2	0	0	0	0	0	0	1
LeftHandIndex3	0	0	0	0	0	0	1
LeftHandIndex4	0	0	0	0	0	0	1
LeftHandMiddle1	0	0	0	0	0	0	1
LeftHandMiddle2	0	0	0	0	0	0	1
LeftHandMiddle3	0	0	0	0	0	0	1
LeftHandMiddle4	0	0	0	0	0	0	1
LeftHandRing1	0	0	0	0	0	0	1
LeftHandRing2	0	0	0	0	0	0	1
LeftHandRing3	0	0	0	0	0	0	1
LeftHandRing4	0	0	0	0	0	0	1
LeftHandPinky1	0	0	0	0	0	0	1
LeftHandPinky2	0	0	0	0	0	0	1
LeftHandPinky3	0	0	0	0	0	0	1
LeftHandPinky4	0	0	0	0	0	0	1
RightShoulder	0	0	0	0	0	0	1
RightArm	0	0	0	0	0	0	1
RightForeArm	0	0	0	0	0	0	1
RightHand	0	0	0	0	0	0	1
RightHandPinky1	0	0	0	0	0	0	1
RightHandPinky2	0	0	0	0	0	0	1
RightHandPinky3	0	0	0	0	0	0	1
RightHandPinky4	0	0	0	0	0	0	1
RightHandRing1	0	0	0	0	0	0	1
RightHandRing2	0	0	0	0	0	0	1
RightHandRing3	0	0	0	0	0	0	1
RightHandRing4	0	0	0	0	0	0	1
RightHandMiddle1	0	0	0	0	0	0	1
RightHandMiddle2	0	0	0	0	0	0	1
RightHandMiddle3	0	0	0	0	0	0	1
RightHandMiddle4	0	0	0	0	0	0	1
RightHandIndex1	0	0	0	0	0	0	1
RightHandIndex2	0	0	0	0	0	0	1
RightHandIndex3	0	0	0	0	0	0	1
RightHandIndex4	0	0	0	0	0	0	1
RightHandThumb1	0	0	0	0	0	0	1
RightHandThumb2	0	0	0	0	0	0	1
RightHandThumb3	0	0	0	0	0	0	1
RightHandThumb4	0	0	0	0	0	0	1
LeftUpLeg	0	0	0	0	0	0	1
LeftLeg	0	0	0	0	0	0	1
LeftFoot	0	0	0	0	0	0	1
LeftToeBase	0	0	0	0	0	0	1
RightUpLeg	0	0	0	0	0	0	1
RightLeg	0	0	0	0	0	0	1
RightFoot	0	0	0	0	0	0	1
RightToeBase	0	0	0	0	0	0	1
[Hips]
4	468.5244141	997.9121094	-16.57789612	-8.089500427	77.64874268	-18.85705948	1.0
5	631.5900879	1007.585388	-26.53931618	-4.401121616	81.2822876	-15.23199844	1.0
6	793.3143311	1002.230896	-34.13709641	-9.068152428	81.62566376	-18.86031532	1.0
[Spine]
4	0	101.8159943	1.315000057	4.552271366	0.6963962317	3.527869463	1.0
5	0	101.8159943	1.315000057	3.788905144	3.412176371	3.16383481	1.0
6	0	101.8159943	1.315000057	4.081983089	3.782718182	4.013999462	1.0
[Spine1]
4	0	100.8349991	-10.00800037	1.709621549	0.1966985762	0.7521959543	1.0
5	0	100.8349991	-10.00800037	1.349894404	1.142986059	0.5183364749	1.0
6	0	100.8349991	-10.00800037	1.262230992	1.323433638	0.6271274686	1.0
[Spine2]
4	0	91	-13.73399925	1.707134008	0.1922386289	0.7519905567	1.0
5	0	91	-13.73399925	1.349123716	1.142736197	0.5109962225	1.0
6	0	91	-13.73399925	1.258183837	1.33172822	0.6143360138	1.0
[Neck]
4	0	166.7169952	-25.16200066	0.3251668811	-12.47055626	3.193009138	1.0
5	0	166.7169952	-25.16200066	0.8060898185	-13.94905853	3.328611851	1.0
6	0	166.7169952	-25.16200066	1.277300119	-14.1547718	3.00148654	1.0
[Head]
4	0	96.17900085	16.84999847	-26.24195099	-49.7857666	27.14984894	1.0
5	0	96.17900085	16.84999847	-29.33205032	-55.18020248	29.78966331	1.0
6	0	96.17900085	16.84999847	-29.29858971	-56.11481094	28.22786331	1.0
[LeftEye]
4	30.6760006	64.09500122	92.83599854	0	0	0	1.0
5	30.6760006	64.09500122	92.83599854	0	0	0	1.0
6	30.6760006	64.09500122	92.83599854	0	0	0	1.0
[RightEye]
4	-30.6760006	64.09500122	92.83499908	0	0	0	1.0
5	-30.6760006	64.09500122	92.83499908	0	0	0	1.0
6	-30.6760006	64.09500122	92.83499908	0	0	0	1.0
[LeftShoulder]
4	45.70400238	109.4599991	-26.28000069	4.901389599	-19.72612762	-7.761049747	1.0
5	45.70400238	109.4599991	-26.28000069	5.152692795	-21.59251404	-7.416224003	1.0
6	45.70400238	109.4599991	-26.28000069	5.555765152	-22.29102325	-8.929413795	1.0
[LeftArm]
4	105.923996	-5.24600029	-22.32099915	36.56373596	37.97762299	-21.5798111	1.0
5	105.923996	-5.24600029	-22.32099915	40.26897049	39.06472015	-13.95334339	1.0
6	105.923996	-5.24600029	-22.32099915	38.28807068	36.53971863	-14.50022984	1.0
[LeftForeArm]
4	278.414978	-0.0009999999311	0	4.454458394e-05	-70.89538574	-0.0002512434148	1.0
5	278.414978	-0.0009999999311	0	3.62397077e-05	-67.33630371	-0.0002206344216	1.0
6	278.414978	-0.0009999999311	0	-2.264632894e-05	-56.56407928	-0.0001636590896	1.0
[LeftHand]
4	283.2879944	0	0	-19.42134094	-36.98711777	20.80919266	1.0
5	283.2879944	0	0	-9.421955109	-31.92231178	11.49093437	1.0
6	283.2879944	0	0	6.917802334	-21.69975471	4.506491661	1.0
[LeftHandThumb1]
4	24.6609993	-15.75	26.8239994	3.531821728	2.100231171	-2.276096344	1.0
5	24.6609993	-15.75	26.8239994	3.681210041	2.378594637	-2.091035604	1.0
6	24.6609993	-15.75	26.8239994	3.255081654	1.665061355	-2.536255121	1.0
[LeftHandThumb2]
4	32.29800034	-18.64699936	18.64699936	4.629919052	15.40047264	23.10260582	1.0
5	32.29800034	-18.64699936	18.64699936	4.909191608	16.61211395	24.06024551	1.0
6	32.29800034	-18.64699936	18.64699936	4.468824387	16.12807465	21.60855865	1.0
[LeftHandThumb3]
4	26.52600098	-15.31499958	15.31499958	0.5973973274	-0.6828977466	-3.508477688	1.0
5	26.52600098	-15.31499958	15.31499958	0.6994723678	-2.241956949	-4.378125668	1.0
6	26.52600098	-15.31499958	15.31499958	0.8198786378	-1.3704983	-4.243826389	1.0
[LeftHandThumb4]
4	19.54599953	-11.28499985	11.28499985	0	0	0	1.0
5	19.54599953	-11.28499985	11.28499985	0	0	0	1.0
6	19.54599953	-11.28499985	11.28499985	0	0	0	1.0
[LeftHandIndex1]
4	91.09299469	-5.170999527	22.60099792	1.410622716	-2.404314995	14.06031036	1.0
5	91.09299469	-5.170999527	22.60099792	1.396947265	-1.992690563	14.23096371	1.0
6	91.09299469	-5.170999527	22.60099792	1.091204882	-1.543891072	9.857039452	1.0
[LeftHandIndex2]
4	36.76399994	0	0	-0.2912301719	2.026567936	-12.5362072	1.0
5	36.76399994	0	0	-0.2853292525	2.010219097	-12.36536312	1.0
6	36.76399994	0	0	-0.2784528732	1.991416693	-12.16855335	1.0
[LeftHandIndex3]
4	28.83100128	0	0	-0.08192478865	0.6369248033	-8.471319199	1.0
5	28.83100128	0	0	-0.07927974313	0.6180126071	-8.281420708	1.0
6	28.83100128	0	0	-0.07583531737	0.5939912796	-8.040197372	1.0
[LeftHandIndex4]
4	23.92700005	0	0	0	0	0	1.0
5	23.92700005	0	0	0	0	0	1.0
6	23.92700005	0	0	0	0	0	1.0
[LeftHandMiddle1]
4	95.33399963	0	0	0.6061064005	0.991620779	3.375748158	1.0
5	95.33399963	0	0	0.7082520723	0.6968903542	4.523485661	1.0
6	95.33399963	0	0	0.2245057225	1.214694858	-0.7101765275	1.0
[LeftHandMiddle2]
4	36.98199844	0	0	-0.5822476149	2.639155388	-19.00561142	1.0
5	36.98199844	0	0	-0.5893666744	2.65206337	-19.15117645	1.0
6	36.98199844	0	0	-0.6365807056	2.737581015	-20.11570549	1.0
[LeftHandMiddle3]
4	29.50900078	0	0	-0.04156099632	0.8999583721	-6.279353619	1.0
5	29.50900078	0	0	-0.04378594831	0.9158121943	-6.440186501	1.0
6	29.50900078	0	0	-0.05695113167	1.009214044	-7.38778162	1.0
[LeftHandMiddle4]
4	28.3390007	0	0	0	0	0	1.0
5	28.3390007	0	0	0	0	0	1.0
6	28.3390007	0	0	0	0	0	1.0
[LeftHandRing1]
4	91.04499817	-0.4390000105	-18.65100098	-0.6127465367	8.128922462	-8.043703079	1.0
5	91.04499817	-0.4390000105	-18.65100098	-0.5209636688	8.218966484	-7.105510235	1.0
6	91.04499817	-0.4390000105	-18.65100098	-1.018262744	8.700118065	-11.5337162	1.0
[LeftHandRing2]
4	31.54000092	0	0	-0.2238299251	2.161143303	-18.56001282	1.0
5	31.54000092	0	0	-0.2084465474	2.108745098	-18.00908852	1.0
6	31.54000092	0	0	-0.2335562557	2.194780111	-18.91319275	1.0
[LeftHandRing3]
4	29.37700081	0	0	0.04625917971	1.070138216	-10.84567833	1.0
5	29.37700081	0	0	0.05117610097	1.016069889	-10.30049324	1.0
6	29.37700081	0	0	0.04315818474	1.105758786	-11.20471859	1.0
[LeftHandRing4]
4	26.47500038	0	0	0	0	0	1.0
5	26.47500038	0	0	0	0	0	1.0
6	26.47500038	0	0	0	0	0	1.0
[LeftHandPinky1]
4	80.77799988	-4.887000084	-38.06099701	-0.2999451756	11.8850441	-2.168937683	1.0
5	80.77799988	-4.887000084	-38.06099701	-0.01481901575	12.21046448	-0.5077155828	1.0
6	80.77799988	-4.887000084	-38.06099701	-0.6690708399	12.91793823	-7.559072018	1.0
[LeftHandPinky2]
4	36	0	0	-0.7029978633	2.2727108	-25.70057678	1.0
5	36	0	0	-0.6477713585	2.172325134	-24.55397034	1.0
6	36	0	0	-0.7039738894	2.276741028	-25.74063301	1.0
[LeftHandPinky3]
4	21.14200211	0	0	0.006051003933	0.6297485828	2.283051968	1.0
5	21.14200211	0	0	0.01108920574	0.518063724	3.397469521	1.0
6	21.14200211	0	0	0.006788888946	0.6361398697	2.219755173	1.0
[LeftHandPinky4]
4	19.75699997	0	0	0	0	0	1.0
5	19.75699997	0	0	0	0	0	1.0
6	19.75699997	0	0	0	0	0	1.0
[RightShoulder]
4	-45.70000076	109.4620056	-26.28000069	3.428643703	2.025344372	9.322083473	1.0
5	-45.70000076	109.4620056	-26.28000069	3.310736179	1.084159732	9.284366608	1.0
6	-45.70000076	109.4620056	-26.28000069	3.31509161	0.1774143875	10.98992825	1.0
[RightArm]
4	-105.9280014	-5.248000145	-22.32099915	13.64621162	6.465602875	43.90669632	1.0
5	-105.9280014	-5.248000145	-22.32099915	8.517699242	6.035061836	40.78319168	1.0
6	-105.9280014	-5.248000145	-22.32099915	8.78739357	2.726162195	37.8684845	1.0
[RightForeArm]
4	-278.414978	0	0	-5.978065019e-05	81.10081482	-2.592683632e-05	1.0
5	-278.414978	0	0	-4.577637083e-05	96.33714294	-2.553878116e-12	1.0
6	-278.414978	0	0	9.082615736e-12	103.64077	1.297517107e-12	1.0
[RightHand]
4	-283.2879944	0	0.0009999999311	33.38240814	-3.376228571	10.82566643	1.0
5	-283.2879944	0	0.0009999999311	39.76334763	1.484891057	5.027582645	1.0
6	-283.2879944	0	0.0009999999311	40.61270142	6.426378727	-1.475993633	1.0
[RightHandPinky1]
4	-80.76699829	-4.885000229	-38.06000137	-7.557526112	-8.673542976	59.52070618	1.0
5	-80.76699829	-4.885000229	-38.06000137	-7.385808945	-8.144048691	58.4026413	1.0
6	-80.76699829	-4.885000229	-38.06000137	-6.128180504	-11.3370018	47.01509094	1.0
[RightHandPinky2]
4	-36	0	0.0009999999311	-2.668323517	-4.3605299	54.7625351	1.0
5	-36	0	0.0009999999311	-2.490753174	-4.238134384	52.59574509	1.0
6	-36	0	0.0009999999311	-1.837495327	-3.720111609	44.22553635	1.0
[RightHandPinky3]
4	-21.14200211	0	0	-1.045473814	-0.4432415068	27.82412338	1.0
5	-21.14200211	0	0	-0.9377505779	-0.2586185932	25.69001007	1.0
6	-21.14200211	0	0	-0.5716096163	0.4760203063	17.50138092	1.0
[RightHandPinky4]
4	-19.75699997	0	0	0	0	0	1.0
5	-19.75699997	0	0	0	0	0	1.0
6	-19.75699997	0	0	0	0	0	1.0
[RightHandRing1]
4	-91.03599548	-0.4390000105	-18.65100098	-5.526356697	-10.08702278	45.83395386	1.0
5	-91.03599548	-0.4390000105	-18.65100098	-5.329514503	-9.909795761	44.48991394	1.0
6	-91.03599548	-0.4390000105	-18.65100098	-4.295134544	-10.36376762	36.86522293	1.0
[RightHandRing2]
4	-31.54000092	0	0	-0.9341207147	-3.691780329	35.66646576	1.0
5	-31.54000092	0	0	-0.8499238491	-3.558753014	34.07459259	1.0
6	-31.54000092	0	0	-0.6321525574	-3.176807404	29.63098907	1.0
[RightHandRing3]
4	-29.37700081	0	0	-0.378059268	-0.7257418036	26.36284256	1.0
5	-29.37700081	0	0	-0.3252487481	-0.5770267844	24.77690125	1.0
6	-29.37700081	0	0	-0.1972914487	-0.1566186845	20.36234283	1.0
[RightHandRing4]
4	-26.47500038	0	0	0	0	0	1.0
5	-26.47500038	0	0	0	0	0	1.0
6	-26.47500038	0	0	0	0	0	1.0
[RightHandMiddle1]
4	-95.32500458	0	0	-4.56121397	-2.766736984	39.61999893	1.0
5	-95.32500458	0	0	-4.496999264	-2.113470078	39.19803619	1.0
6	-95.32500458	0	0	-3.108765125	-3.492274523	28.84023094	1.0
[RightHandMiddle2]
4	-36.98199844	0	0	-1.135775089	-3.481929779	28.98372459	1.0
5	-36.98199844	0	0	-1.062674642	-3.387610912	27.80391312	1.0
6	-36.98199844	0	0	-0.9445877671	-3.225674629	25.82279778	1.0
[RightHandMiddle3]
4	-29.50900078	0	0	-0.3779754639	-2.040435314	19.75123405	1.0
5	-29.50900078	0	0	-0.3373522162	-1.931067824	18.5778904	1.0
6	-29.50900078	0	0	-0.274638027	-1.745928645	16.61236954	1.0
[RightHandMiddle4]
4	-28.3390007	0	0.0009999999311	0	0	0	1.0
5	-28.3390007	0	0.0009999999311	0	0	0	1.0
6	-28.3390007	0	0.0009999999311	0	0	0	1.0
[RightHandIndex1]
4	-91.08300018	-5.167999744	22.60099792	-1.118661046	3.08673811	16.95068359	1.0
5	-91.08300018	-5.167999744	22.60099792	-1.018547773	4.29263401	15.98939037	1.0
6	-91.08300018	-5.167999744	22.60099792	-0.6409692168	2.597872972	10.09721279	1.0
[RightHandIndex2]
4	-36.76399994	0	0	-0.3263275623	-2.118132114	13.50190544	1.0
5	-36.76399994	0	0	-0.2982542813	-2.044964075	12.73153782	1.0
6	-36.76399994	0	0	-0.2658295929	-1.956195712	11.80242252	1.0
[RightHandIndex3]
4	-28.83100128	0	0	-0.2169567347	-0.06647892296	12.91492653	1.0
5	-28.83100128	0	0	-0.2001571655	0.008703517728	12.14895344	1.0
6	-28.83100128	0	0	-0.1815369427	0.09865252674	11.23568344	1.0
[RightHandIndex4]
4	-23.92700005	0	0	0	0	0	1.0
5	-23.92700005	0	0	0	0	0	1.0
6	-23.92700005	0	0	0	0	0	1.0
[RightHandThumb1]
4	-24.64799881	-15.72700024	26.82600021	-2.033577919	4.726726055	6.299443245	1.0
5	-24.64799881	-15.72700024	26.82600021	-2.489861727	6.000613213	6.959859371	1.0
6	-24.64799881	-15.72700024	26.82600021	-0.6696017385	4.298612595	6.413370609	1.0
[RightHandThumb2]
4	-32.29800034	-18.64699936	18.64699936	3.602264881	-23.75664902	-12.79162502	1.0
5	-32.29800034	-18.64699936	18.64699936	2.964644909	-24.77173424	-13.5265522	1.0
6	-32.29800034	-18.64699936	18.64699936	2.518626451	-23.08454132	-12.88299656	1.0
[RightHandThumb3]
4	-26.52600098	-15.31399918	15.31399918	2.316110134	-10.90389824	-0.5007724762	1.0
5	-26.52600098	-15.31399918	15.31399918	1.967936993	-9.78355217	-0.1260319501	1.0
6	-26.52600098	-15.31399918	15.31399918	1.546487689	-7.847156525	0.4553597569	1.0
[RightHandThumb4]
4	-19.54599953	-11.28499985	11.28499985	0	0	0	1.0
5	-19.54599953	-11.28499985	11.28499985	0	0	0	1.0
6	-19.54599953	-11.28499985	11.28499985	0	0	0	1.0
[LeftUpLeg]
4	82.07800293	-67.51699829	-15.99599934	-53.10700226	0.8932159543	3.671287537	1.0
5	82.07800293	-67.51699829	-15.99599934	-53.12370682	-1.065696716	2.094562769	1.0
6	82.07800293	-67.51699829	-15.99599934	-46.00712585	0.7086979151	1.911938429	1.0
[LeftLeg]
4	0	-443.7049866	2.845999956	73.98219299	0.6755723357	9.109492302	1.0
5	0	-443.7049866	2.845999956	52.36194229	2.812527895	7.703563213	1.0
6	0	-443.7049866	2.845999956	35.86245346	1.501857996	4.005401134	1.0
[LeftFoot]
4	0	-444.2789917	-29.8219986	-8.278877258	2.84906745	-7.024479866	1.0
5	0	-444.2789917	-29.8219986	-10.42651081	0.7978225946	-7.748682976	1.0
6	0	-444.2789917	-29.8219986	-7.670707226	0.3183304965	-8.209676743	1.0
[LeftToeBase]
4	0	-87.28699493	107.1060028	0.6679397821	2.109639172e-05	-6.55162512e-06	1.0
5	0	-87.28699493	107.1060028	1.495455503	9.289069567e-06	-2.245677479e-06	1.0
6	0	-87.28699493	107.1060028	0.2954539955	-3.491467214e-05	3.341989725e-07	1.0
[RightUpLeg]
4	-82.07800293	-67.51699829	-15.99599934	8.876533508	-5.467088699	1.453205347	1.0
5	-82.07800293	-67.51699829	-15.99599934	16.35030937	-7.508136272	-2.029026508	1.0
6	-82.07800293	-67.51699829	-15.99599934	11.65151787	-5.244850636	-0.4446504712	1.0
[RightLeg]
4	0	-443.7049866	2.861999989	15.39032173	7.170758247	-5.647847176	1.0
5	0	-443.7049866	2.861999989	13.7686615	6.139902592	-7.733799458	1.0
6	0	-443.7049866	2.861999989	36.34456253	3.919064522	-9.945709229	1.0
[RightFoot]
4	0	-444.2770081	-29.83799934	7.641164303	-1.461226463	10.37068939	1.0
5	0	-444.2770081	-29.83799934	19.78054428	-2.768423319	11.43771267	1.0
6	0	-444.2770081	-29.83799934	19.1181221	-5.257941246	11.94581985	1.0
[RightToeBase]
4	0	-87.28699493	107.1060028	-16.44317627	-0.5176218748	-1.745055676	1.0
5	0	-87.28699493	107.1060028	-8.892262459	3.372240826e-05	-1.822746162e-05	1.0
6	0	-87.28699493	107.1060028	-7.817169189	1.159344356e-05	-9.346479601e-06	1.0
[EndOfFile]
